<svg xmlns="http://www.w3.org/2000/svg" width="46" height="46" viewBox="0 0 46 46" fill="none">
    <path d="M2.08594 4.37738C1.43853 5.34424 0.974241 6.44314 0.740234 7.62543L1.19824 7.71722C1.09165 8.25614 1.03613 8.81417 1.03613 9.38519V11.0746H0.566406V14.4545H1.03613V17.8334H0.566406V21.2133H1.03613V24.5932H0.566406V27.9721H1.03613V31.352H0.566406V34.7319H1.03613V36.4213C1.03613 36.9925 1.09161 37.5503 1.19824 38.0893L0.740234 38.1791C0.9741 39.3618 1.4384 40.461 2.08594 41.4282L2.47461 41.1674C3.09844 42.0992 3.90119 42.902 4.83301 43.5258L4.57227 43.9145C5.53944 44.562 6.63859 45.0263 7.82129 45.2602L7.91113 44.8022C8.45014 44.9088 9.00797 44.9643 9.5791 44.9643H11.2686V45.434H14.6484V44.9643H18.0283V45.434H21.4072V44.9643H24.7871V45.434H28.167V44.9643H31.5459V45.434H34.9258V44.9643H36.6152C37.1863 44.9643 37.7443 44.9088 38.2832 44.8022L38.375 45.2602C39.5573 45.0262 40.6562 44.5619 41.623 43.9145L41.3623 43.5258C42.294 42.902 43.0959 42.0992 43.7197 41.1674L44.1094 41.4282C44.7569 40.461 45.2222 39.3618 45.4561 38.1791L44.9961 38.0893C45.0761 37.685 45.1277 37.2702 45.1484 36.8471L45.1582 36.4213V34.7319H45.6279V31.352H45.1582V27.9721H45.6279V24.5932H45.1582V21.2133H45.6279V17.8334H45.1582V14.4545H45.6279V11.0746H45.1582V9.38519C45.1582 8.81415 45.1027 8.25616 44.9961 7.71722L45.4561 7.62543C45.2221 6.44315 44.7567 5.34425 44.1094 4.37738L43.7197 4.63812C43.096 3.70659 42.2938 2.90442 41.3623 2.2807L41.623 1.89105C40.6562 1.2437 39.5573 0.778334 38.375 0.544373L38.2832 1.00433C37.7443 0.897733 37.1863 0.842224 36.6152 0.842224H34.9258V0.372498H31.5459V0.842224H28.167V0.372498H24.7871V0.842224H21.4072V0.372498H18.0283V0.842224H14.6484V0.372498H11.2686V0.842224H9.5791C9.00796 0.842224 8.45015 0.8977 7.91113 1.00433L7.82129 0.544373C6.6386 0.778193 5.53945 1.24357 4.57227 1.89105L4.83301 2.2807C3.90127 2.90448 3.09842 3.70641 2.47461 4.63812L2.08594 4.37738Z" stroke="#1E3363" stroke-width="0.938775" stroke-dasharray="3.76 3.76"/>
</svg>